 <svg  version="1.0" xmlns="http://www.w3.org/2000/svg"  width="300.000000pt" height="310.000000pt" viewBox="0 0 300.000000 310.000000"  preserveAspectRatio="xMidYMid meet">  <g transform="translate(0.000000,310.000000) scale(0.100000,-0.100000)" fill="#ff7700" stroke="none"> <path d="M1426 2835 c-53 -19 -106 -63 -141 -120 -26 -42 -30 -57 -29 -119 1 -142 92 -246 230 -262 110 -13 232 67 267 175 21 66 21 95 0 157 -35 106 -120 173 -225 179 -37 2 -79 -2 -102 -10z"/> <path d="M544 2536 c-193 -62 -308 -189 -370 -406 -30 -105 -26 -297 10 -425 27 -97 109 -282 164 -368 67 -105 236 -318 352 -442 112 -121 430 -437 539 -536 57 -52 114 -103 125 -114 66 -64 119 -103 142 -103 45 0 421 339 701 632 495 517 684 874 659 1241 -8 104 -25 166 -72 256 -120 231 -374 339 -616 263 -101 -32 -154 -58 -255 -127 -87 -58 -286 -251 -354 -341 -24 -33 -49 -61 -55 -63 -6 -2 -39 33 -73 77 -76 99 -211 233 -306 305 -205 155 -413 209 -591 151z m304 -178 c35 -16 91 -56 127 -90 248 -232 336 -518 396 -1292 5 -71 16 -172 25 -223 23 -143 45 -335 40 -341 -12 -11 -69 41 -325 296 -322 321 -370 373 -515 567 -230 305 -310 522 -279 753 38 289 289 445 531 330z m1624 10 c164 -75 248 -239 235 -461 -7 -131 -25 -198 -88 -326 -124 -253 -322 -495 -737 -902 -242 -237 -288 -277 -303 -262 -6 6 0 65 16 169 14 87 32 222 40 299 28 285 66 593 86 695 12 58 25 125 30 150 13 65 57 196 79 238 11 20 20 41 20 45 0 5 27 49 61 97 103 151 226 250 346 279 62 15 156 6 215 -21z"/> </g> </svg> 